<svg xmlns="http://www.w3.org/2000/svg" xmlns:xlink="http://www.w3.org/1999/xlink" width="550" zoomAndPan="magnify" viewBox="0 0 412.5 241.499998" height="322" preserveAspectRatio="xMidYMid meet" version="1.0"><defs><clipPath id="89b6101503"><path d="M 233 35 L 316.585938 35 L 316.585938 148 L 233 148 Z M 233 35 " clip-rule="nonzero"/></clipPath><clipPath id="0e0911d781"><path d="M 103 138 L 199 138 L 199 230.050781 L 103 230.050781 Z M 103 138 " clip-rule="nonzero"/></clipPath><clipPath id="f1558efb09"><path d="M 95.890625 35 L 179 35 L 179 148 L 95.890625 148 Z M 95.890625 35 " clip-rule="nonzero"/></clipPath><clipPath id="e634a8b8d0"><path d="M 147 10.480469 L 265 10.480469 L 265 87 L 147 87 Z M 147 10.480469 " clip-rule="nonzero"/></clipPath><clipPath id="81d9fd634d"><path d="M 213 138 L 309 138 L 309 230.050781 L 213 230.050781 Z M 213 138 " clip-rule="nonzero"/></clipPath><clipPath id="62bd3e2341"><path d="M 116.625 82.902344 L 148 82.902344 L 148 115.554688 L 116.625 115.554688 Z M 116.625 82.902344 " clip-rule="nonzero"/></clipPath><clipPath id="737bf50063"><path d="M 232.417969 167.863281 L 266.195312 167.863281 L 266.195312 201.644531 L 232.417969 201.644531 Z M 232.417969 167.863281 " clip-rule="nonzero"/></clipPath><clipPath id="8a21fb8ae1"><path d="M 198 26.679688 L 205 26.679688 L 205 33 L 198 33 Z M 198 26.679688 " clip-rule="nonzero"/></clipPath><clipPath id="20106475af"><path d="M 190.613281 31 L 197 31 L 197 38 L 190.613281 38 Z M 190.613281 31 " clip-rule="nonzero"/></clipPath><clipPath id="1d7c504e93"><path d="M 203 50 L 214 50 L 214 60.460938 L 203 60.460938 Z M 203 50 " clip-rule="nonzero"/></clipPath><clipPath id="2ed6dc6ddd"><path d="M 213 43 L 224.390625 43 L 224.390625 54 L 213 54 Z M 213 43 " clip-rule="nonzero"/></clipPath><clipPath id="3fd57fff09"><path d="M 196 59 L 198 59 L 198 60.460938 L 196 60.460938 Z M 196 59 " clip-rule="nonzero"/></clipPath><clipPath id="cde049c343"><path d="M 141.199219 163.0625 L 178 163.0625 L 178 193.464844 L 141.199219 193.464844 Z M 141.199219 163.0625 " clip-rule="nonzero"/></clipPath><clipPath id="6ad64f7ef5"><path d="M 288 82 L 299.191406 82 L 299.191406 91 L 288 91 Z M 288 82 " clip-rule="nonzero"/></clipPath><clipPath id="0fd484bb0f"><path d="M 271 76.792969 L 290 76.792969 L 290 113.949219 L 271 113.949219 Z M 271 76.792969 " clip-rule="nonzero"/></clipPath><clipPath id="7a84cbc3fb"><path d="M 262.035156 100 L 273 100 L 273 108 L 262.035156 108 Z M 262.035156 100 " clip-rule="nonzero"/></clipPath><clipPath id="18107b8be9"><path d="M 175.90625 90.40625 L 236.097656 90.40625 L 236.097656 150.597656 L 175.90625 150.597656 Z M 175.90625 90.40625 " clip-rule="nonzero"/></clipPath><clipPath id="952a479335"><path d="M 206 90.40625 C 189.378906 90.40625 175.90625 103.878906 175.90625 120.5 C 175.90625 137.121094 189.378906 150.597656 206 150.597656 C 222.621094 150.597656 236.097656 137.121094 236.097656 120.5 C 236.097656 103.878906 222.621094 90.40625 206 90.40625 Z M 206 90.40625 " clip-rule="nonzero"/></clipPath><clipPath id="a668a17f8e"><path d="M 183.164062 97.664062 L 229 97.664062 L 229 143.828125 L 183.164062 143.828125 Z M 183.164062 97.664062 " clip-rule="nonzero"/></clipPath></defs><g clip-path="url(#89b6101503)"><path fill="#d89d55" d="M 243.4375 120.589844 C 243.4375 122.15625 243.339844 123.699219 243.152344 125.210938 L 312.714844 147.816406 C 314.929688 139.109375 316.109375 129.988281 316.109375 120.589844 C 316.109375 86.511719 300.628906 56.050781 276.316406 35.855469 L 233.339844 95.011719 C 239.601562 101.707031 243.4375 110.699219 243.4375 120.589844 Z M 243.4375 120.589844 " fill-opacity="1" fill-rule="nonzero"/></g><g clip-path="url(#0e0911d781)"><path fill="#e1ad71" d="M 173.222656 138.6875 L 103.660156 161.289062 C 119.019531 199.871094 155.558594 227.714844 198.917969 230.46875 L 198.917969 157.355469 C 187.84375 155.238281 178.507812 148.238281 173.222656 138.6875 Z M 173.222656 138.6875 " fill-opacity="1" fill-rule="nonzero"/></g><g clip-path="url(#f1558efb09)"><path fill="#e1ad71" d="M 99.285156 147.816406 L 168.847656 125.210938 C 168.664062 123.699219 168.5625 122.152344 168.5625 120.589844 C 168.5625 110.695312 172.398438 101.703125 178.667969 95.011719 L 135.683594 35.855469 C 111.371094 56.054688 95.890625 86.511719 95.890625 120.589844 C 95.890625 129.988281 97.070312 139.109375 99.285156 147.816406 Z M 99.285156 147.816406 " fill-opacity="1" fill-rule="nonzero"/></g><g clip-path="url(#e634a8b8d0)"><path fill="#d89d55" d="M 206 83.152344 C 211.675781 83.152344 217.058594 84.417969 221.882812 86.679688 L 264.863281 27.523438 C 247.835938 16.730469 227.648438 10.476562 206 10.476562 C 184.347656 10.476562 164.164062 16.730469 147.136719 27.523438 L 190.117188 86.679688 C 194.941406 84.417969 200.324219 83.152344 206 83.152344 Z M 206 83.152344 " fill-opacity="1" fill-rule="nonzero"/></g><g clip-path="url(#81d9fd634d)"><path fill="#e5ba86" d="M 213.082031 157.355469 L 213.082031 230.46875 C 256.445312 227.714844 292.988281 199.871094 308.339844 161.289062 L 238.777344 138.6875 C 233.492188 148.238281 224.15625 155.238281 213.082031 157.355469 Z M 213.082031 157.355469 " fill-opacity="1" fill-rule="nonzero"/></g><path fill="#ffffff" d="M 125.371094 93.980469 C 125.050781 93.980469 124.789062 94.238281 124.789062 94.5625 L 124.789062 95.726562 L 123.625 95.726562 C 123.300781 95.726562 123.042969 95.988281 123.042969 96.308594 C 123.042969 96.632812 123.300781 96.890625 123.625 96.890625 L 125.371094 96.890625 C 125.695312 96.890625 125.953125 96.632812 125.953125 96.308594 L 125.953125 94.5625 C 125.953125 94.238281 125.695312 93.980469 125.371094 93.980469 Z M 125.371094 93.980469 " fill-opacity="1" fill-rule="nonzero"/><path fill="#ffffff" d="M 125.371094 98.058594 L 123.042969 98.058594 C 122.71875 98.058594 122.460938 98.316406 122.460938 98.640625 L 122.460938 100.96875 C 122.460938 101.292969 122.71875 101.554688 123.042969 101.554688 L 125.371094 101.554688 C 125.695312 101.554688 125.953125 101.292969 125.953125 100.96875 L 125.953125 98.640625 C 125.953125 98.316406 125.695312 98.058594 125.371094 98.058594 Z M 124.789062 100.386719 L 123.625 100.386719 L 123.625 99.222656 L 124.789062 99.222656 Z M 124.789062 100.386719 " fill-opacity="1" fill-rule="nonzero"/><path fill="#ffffff" d="M 125.371094 102.71875 L 123.042969 102.71875 C 122.71875 102.71875 122.460938 102.980469 122.460938 103.300781 L 122.460938 105.632812 C 122.460938 105.953125 122.71875 106.214844 123.042969 106.214844 L 125.371094 106.214844 C 125.695312 106.214844 125.953125 105.953125 125.953125 105.632812 L 125.953125 103.300781 C 125.953125 102.980469 125.695312 102.71875 125.371094 102.71875 Z M 124.789062 105.050781 L 123.625 105.050781 L 123.625 103.882812 L 124.789062 103.882812 Z M 124.789062 105.050781 " fill-opacity="1" fill-rule="nonzero"/><path fill="#ffffff" d="M 125.371094 107.378906 L 123.042969 107.378906 C 122.71875 107.378906 122.460938 107.640625 122.460938 107.960938 L 122.460938 110.292969 C 122.460938 110.613281 122.71875 110.875 123.042969 110.875 L 125.371094 110.875 C 125.695312 110.875 125.953125 110.613281 125.953125 110.292969 L 125.953125 107.960938 C 125.953125 107.640625 125.695312 107.378906 125.371094 107.378906 Z M 124.789062 109.710938 L 123.625 109.710938 L 123.625 108.546875 L 124.789062 108.546875 Z M 124.789062 109.710938 " fill-opacity="1" fill-rule="nonzero"/><path fill="#ffffff" d="M 133.53125 94.5625 L 128.285156 94.5625 C 127.964844 94.5625 127.703125 94.824219 127.703125 95.144531 C 127.703125 95.464844 127.964844 95.726562 128.285156 95.726562 L 133.53125 95.726562 C 133.851562 95.726562 134.113281 95.464844 134.113281 95.144531 C 134.113281 94.824219 133.851562 94.5625 133.53125 94.5625 Z M 133.53125 94.5625 " fill-opacity="1" fill-rule="nonzero"/><path fill="#ffffff" d="M 133.53125 99.222656 L 128.285156 99.222656 C 127.964844 99.222656 127.703125 99.484375 127.703125 99.804688 C 127.703125 100.128906 127.964844 100.386719 128.285156 100.386719 L 133.53125 100.386719 C 133.851562 100.386719 134.113281 100.128906 134.113281 99.804688 C 134.113281 99.484375 133.851562 99.222656 133.53125 99.222656 Z M 133.53125 99.222656 " fill-opacity="1" fill-rule="nonzero"/><path fill="#ffffff" d="M 132.363281 103.882812 L 128.285156 103.882812 C 127.964844 103.882812 127.703125 104.144531 127.703125 104.464844 C 127.703125 104.789062 127.964844 105.050781 128.285156 105.050781 L 132.363281 105.050781 C 132.6875 105.050781 132.945312 104.789062 132.945312 104.464844 C 132.945312 104.144531 132.6875 103.882812 132.363281 103.882812 Z M 132.363281 103.882812 " fill-opacity="1" fill-rule="nonzero"/><path fill="#ffffff" d="M 132.363281 108.546875 L 128.285156 108.546875 C 127.964844 108.546875 127.703125 108.804688 127.703125 109.128906 C 127.703125 109.449219 127.964844 109.710938 128.285156 109.710938 L 132.363281 109.710938 C 132.6875 109.710938 132.945312 109.449219 132.945312 109.128906 C 132.945312 108.804688 132.6875 108.546875 132.363281 108.546875 Z M 132.363281 108.546875 " fill-opacity="1" fill-rule="nonzero"/><g clip-path="url(#62bd3e2341)"><path fill="#ffffff" d="M 147.300781 104.753906 C 146.96875 103.535156 146.015625 102.605469 144.84375 102.273438 C 145.5 101.90625 146.046875 101.324219 146.359375 100.578125 L 146.828125 99.464844 C 146.953125 99.167969 146.8125 98.824219 146.515625 98.703125 L 145.40625 98.234375 C 144.542969 97.871094 143.59375 97.867188 142.730469 98.21875 C 141.863281 98.574219 141.1875 99.242188 140.828125 100.101562 L 140.792969 100.183594 C 140.605469 99.902344 140.386719 99.636719 140.144531 99.394531 C 140.082031 99.332031 140.011719 99.289062 139.9375 99.261719 L 139.9375 88.734375 C 139.9375 87.449219 138.894531 86.402344 137.609375 86.402344 L 131.054688 86.402344 C 130.8125 86.402344 130.617188 86.207031 130.617188 85.96875 L 130.617188 85.277344 C 130.617188 84.644531 130.355469 84.023438 129.898438 83.574219 C 129.449219 83.132812 128.863281 82.898438 128.242188 82.910156 C 126.980469 82.933594 125.953125 83.976562 125.953125 85.238281 L 125.953125 85.96875 C 125.953125 86.207031 125.757812 86.402344 125.519531 86.402344 L 118.964844 86.402344 C 117.679688 86.402344 116.632812 87.449219 116.632812 88.734375 L 116.632812 113.207031 C 116.632812 114.492188 117.679688 115.539062 118.964844 115.539062 L 137.609375 115.539062 C 137.789062 115.539062 137.96875 115.515625 138.144531 115.472656 C 138.339844 115.515625 138.542969 115.539062 138.746094 115.539062 C 139.539062 115.539062 140.28125 115.230469 140.839844 114.671875 L 140.898438 114.613281 L 140.953125 114.671875 C 141.511719 115.230469 142.257812 115.539062 143.046875 115.539062 C 144.082031 115.539062 145.054688 114.988281 145.585938 114.101562 L 146.136719 113.179688 C 147.648438 110.660156 148.074219 107.589844 147.300781 104.753906 Z M 141.902344 100.554688 C 142.144531 99.980469 142.59375 99.535156 143.167969 99.296875 C 143.746094 99.0625 144.378906 99.066406 144.953125 99.308594 L 145.527344 99.550781 L 145.285156 100.125 C 145.046875 100.699219 144.59375 101.144531 144.019531 101.378906 C 143.441406 101.613281 142.808594 101.613281 142.234375 101.371094 L 141.660156 101.128906 Z M 141.785156 102.445312 C 141.90625 102.496094 142.03125 102.539062 142.160156 102.578125 C 141.984375 102.671875 141.820312 102.78125 141.664062 102.90625 C 141.660156 102.730469 141.644531 102.550781 141.621094 102.375 Z M 140.496094 103.242188 L 140.429688 103.175781 C 140.277344 103.023438 140.113281 102.886719 139.9375 102.765625 L 139.9375 101.015625 C 140.335938 101.683594 140.53125 102.457031 140.496094 103.242188 Z M 138.773438 88.734375 L 138.773438 102.238281 C 138.496094 102.171875 138.210938 102.136719 137.917969 102.136719 C 137.816406 102.136719 137.710938 102.140625 137.609375 102.148438 L 137.609375 89.316406 C 137.609375 88.996094 137.347656 88.734375 137.027344 88.734375 L 134.113281 88.734375 C 134.113281 88.308594 133.996094 87.914062 133.796875 87.570312 L 137.609375 87.570312 C 138.25 87.570312 138.773438 88.09375 138.773438 88.734375 Z M 135.0625 112.042969 L 120.128906 112.042969 L 120.128906 89.898438 L 122.773438 89.898438 C 123.175781 90.597656 123.929688 91.066406 124.789062 91.066406 L 131.78125 91.066406 C 132.640625 91.066406 133.394531 90.597656 133.796875 89.898438 L 136.441406 89.898438 L 136.441406 102.460938 C 135.507812 102.890625 134.777344 103.714844 134.496094 104.753906 C 133.832031 107.171875 134.046875 109.765625 135.0625 112.042969 Z M 127.121094 85.96875 L 127.121094 85.238281 C 127.121094 84.609375 127.632812 84.085938 128.261719 84.074219 C 128.566406 84.066406 128.859375 84.1875 129.082031 84.40625 C 129.316406 84.636719 129.449219 84.953125 129.449219 85.277344 L 129.449219 85.96875 C 129.449219 86.851562 130.167969 87.570312 131.054688 87.570312 L 131.78125 87.570312 C 132.425781 87.570312 132.945312 88.09375 132.945312 88.734375 C 132.945312 89.378906 132.425781 89.898438 131.78125 89.898438 L 124.789062 89.898438 C 124.148438 89.898438 123.625 89.378906 123.625 88.734375 C 123.625 88.09375 124.148438 87.570312 124.789062 87.570312 L 125.519531 87.570312 C 126.402344 87.570312 127.121094 86.851562 127.121094 85.96875 Z M 117.796875 113.207031 L 117.796875 88.734375 C 117.796875 88.09375 118.320312 87.570312 118.964844 87.570312 L 122.773438 87.570312 C 122.574219 87.914062 122.460938 88.308594 122.460938 88.734375 L 119.546875 88.734375 C 119.222656 88.734375 118.964844 88.996094 118.964844 89.316406 L 118.964844 112.625 C 118.964844 112.945312 119.222656 113.207031 119.546875 113.207031 L 135.671875 113.207031 L 136.207031 114.101562 C 136.265625 114.195312 136.328125 114.285156 136.394531 114.371094 L 118.964844 114.371094 C 118.320312 114.371094 117.796875 113.847656 117.796875 113.207031 Z M 145.136719 112.582031 L 144.585938 113.5 C 144.261719 114.039062 143.671875 114.371094 143.046875 114.371094 C 142.566406 114.371094 142.117188 114.183594 141.777344 113.847656 L 141.308594 113.378906 C 141.199219 113.269531 141.050781 113.207031 140.898438 113.207031 C 140.742188 113.207031 140.59375 113.269531 140.484375 113.378906 L 140.015625 113.847656 C 139.675781 114.183594 139.226562 114.371094 138.746094 114.371094 C 138.121094 114.371094 137.53125 114.039062 137.207031 113.5 L 136.65625 112.582031 C 135.304688 110.332031 134.929688 107.589844 135.617188 105.058594 C 135.902344 104.023438 136.847656 103.300781 137.917969 103.300781 C 138.554688 103.300781 139.15625 103.550781 139.605469 104 L 140.484375 104.878906 C 140.710938 105.105469 141.082031 105.105469 141.308594 104.878906 L 142.1875 104 C 142.636719 103.550781 143.238281 103.300781 143.875 103.300781 C 144.945312 103.300781 145.890625 104.023438 146.175781 105.058594 C 146.863281 107.589844 146.488281 110.332031 145.136719 112.582031 Z M 145.136719 112.582031 " fill-opacity="1" fill-rule="nonzero"/></g><path fill="#ffffff" d="M 144.722656 109.730469 C 144.414062 109.644531 144.09375 109.828125 144.007812 110.140625 C 143.957031 110.324219 143.902344 110.507812 143.839844 110.691406 C 143.738281 110.996094 143.902344 111.328125 144.207031 111.429688 C 144.269531 111.449219 144.332031 111.457031 144.394531 111.457031 C 144.636719 111.457031 144.863281 111.304688 144.945312 111.058594 C 145.011719 110.859375 145.074219 110.652344 145.132812 110.449219 C 145.214844 110.136719 145.035156 109.816406 144.722656 109.730469 Z M 144.722656 109.730469 " fill-opacity="1" fill-rule="nonzero"/><path fill="#ffffff" d="M 144.976562 106.214844 C 144.652344 106.214844 144.394531 106.476562 144.394531 106.796875 L 144.394531 107.285156 C 144.394531 107.683594 144.371094 108.085938 144.324219 108.480469 C 144.289062 108.800781 144.519531 109.089844 144.839844 109.125 C 144.863281 109.125 144.882812 109.128906 144.90625 109.128906 C 145.199219 109.128906 145.449219 108.90625 145.484375 108.609375 C 145.53125 108.171875 145.558594 107.726562 145.558594 107.285156 L 145.558594 106.796875 C 145.558594 106.476562 145.296875 106.214844 144.976562 106.214844 Z M 144.976562 106.214844 " fill-opacity="1" fill-rule="nonzero"/><path fill="#ffffff" d="M 124.960938 92.402344 L 123.042969 94.320312 L 122.871094 94.148438 C 122.644531 93.921875 122.273438 93.921875 122.046875 94.148438 C 121.820312 94.378906 121.820312 94.746094 122.046875 94.972656 L 122.628906 95.554688 C 122.742188 95.667969 122.890625 95.726562 123.042969 95.726562 C 123.191406 95.726562 123.339844 95.667969 123.453125 95.554688 L 125.785156 93.226562 C 126.011719 92.996094 126.011719 92.628906 125.785156 92.402344 C 125.558594 92.175781 125.1875 92.175781 124.960938 92.402344 Z M 124.960938 92.402344 " fill-opacity="1" fill-rule="nonzero"/><path fill="#ffffff" d="M 259.765625 176.605469 L 259.765625 177.800781 L 260.859375 177.800781 L 260.859375 176.707031 L 261.949219 176.707031 L 261.949219 175.070312 C 261.949219 174.167969 261.214844 173.433594 260.3125 173.433594 C 260.011719 173.433594 259.765625 173.1875 259.765625 172.886719 L 259.765625 172.339844 L 260.3125 172.339844 C 260.613281 172.339844 260.859375 172.585938 260.859375 172.886719 L 260.859375 173.433594 L 261.949219 173.433594 L 261.949219 172.886719 C 261.949219 172.175781 261.492188 171.574219 260.859375 171.347656 L 260.859375 170.15625 L 259.765625 170.15625 L 259.765625 171.25 L 258.675781 171.25 L 258.675781 172.886719 C 258.675781 173.789062 259.410156 174.523438 260.3125 174.523438 C 260.613281 174.523438 260.859375 174.769531 260.859375 175.070312 L 260.859375 175.617188 L 260.3125 175.617188 C 260.011719 175.617188 259.765625 175.371094 259.765625 175.070312 L 259.765625 174.523438 L 258.675781 174.523438 L 258.675781 175.070312 C 258.675781 175.78125 259.132812 176.382812 259.765625 176.605469 Z M 259.765625 176.605469 " fill-opacity="1" fill-rule="nonzero"/><path fill="#ffffff" d="M 240.113281 194.175781 C 240.113281 193.574219 239.625 193.085938 239.023438 193.085938 L 237.929688 193.085938 C 237.328125 193.085938 236.839844 193.574219 236.839844 194.175781 C 236.234375 194.175781 235.746094 194.667969 235.746094 195.269531 L 235.746094 196.359375 C 235.746094 196.960938 236.234375 197.453125 236.839844 197.453125 C 236.839844 198.054688 237.328125 198.542969 237.929688 198.542969 L 239.023438 198.542969 C 239.625 198.542969 240.113281 198.054688 240.113281 197.453125 C 240.714844 197.453125 241.207031 196.960938 241.207031 196.359375 L 241.207031 195.269531 C 241.207031 194.667969 240.714844 194.175781 240.113281 194.175781 Z M 240.113281 196.359375 L 239.023438 196.359375 L 239.023438 197.453125 L 237.929688 197.453125 L 237.929688 196.359375 L 236.839844 196.359375 L 236.839844 195.269531 L 237.929688 195.269531 L 237.929688 194.175781 L 239.023438 194.175781 L 239.023438 195.269531 L 240.113281 195.269531 Z M 240.113281 196.359375 " fill-opacity="1" fill-rule="nonzero"/><g clip-path="url(#737bf50063)"><path fill="#ffffff" d="M 263.457031 193.085938 C 263.078125 193.085938 262.714844 193.160156 262.375 193.296875 C 262.710938 192.53125 263.234375 191.847656 263.914062 191.339844 L 263.261719 190.464844 C 263.136719 190.554688 263.027344 190.660156 262.914062 190.757812 C 263.710938 188.917969 264.132812 186.929688 264.132812 184.894531 C 264.132812 182.960938 263.761719 181.089844 263.039062 179.320312 C 264.980469 178.328125 266.316406 176.308594 266.316406 173.976562 C 266.316406 170.667969 263.625 167.972656 260.3125 167.972656 C 257.984375 167.972656 255.964844 169.308594 254.96875 171.25 C 253.199219 170.527344 251.328125 170.15625 249.394531 170.15625 C 246.863281 170.15625 244.445312 170.785156 242.277344 171.984375 C 242.285156 171.925781 242.296875 171.867188 242.296875 171.804688 C 242.296875 171.28125 242.042969 170.785156 241.617188 170.480469 L 238.691406 168.390625 C 237.925781 167.84375 236.84375 167.84375 236.078125 168.390625 L 233.152344 170.480469 C 232.726562 170.785156 232.472656 171.28125 232.472656 171.804688 C 232.472656 172.515625 232.929688 173.113281 233.5625 173.335938 L 233.5625 177.800781 C 233.5625 178.402344 234.050781 178.890625 234.65625 178.890625 L 235.929688 178.890625 C 235.09375 180.769531 234.65625 182.828125 234.65625 184.894531 C 234.65625 186.832031 235.027344 188.703125 235.75 190.46875 C 233.808594 191.464844 232.472656 193.484375 232.472656 195.816406 C 232.472656 199.125 235.164062 201.820312 238.476562 201.820312 C 240.804688 201.820312 242.824219 200.484375 243.820312 198.539062 C 245.585938 199.265625 247.460938 199.636719 249.394531 199.636719 C 251.996094 199.636719 254.519531 198.949219 256.753906 197.660156 C 256.789062 197.773438 256.820312 197.886719 256.863281 197.996094 L 257.710938 200.253906 C 258.058594 201.191406 258.96875 201.820312 259.964844 201.820312 L 260.085938 201.820312 C 260.5625 201.820312 261.015625 201.683594 261.402344 201.429688 C 261.792969 201.683594 262.246094 201.820312 262.722656 201.820312 L 262.84375 201.820312 C 263.839844 201.820312 264.746094 201.191406 265.097656 200.257812 L 265.945312 197.996094 C 266.191406 197.339844 266.316406 196.648438 266.316406 195.945312 C 266.316406 194.367188 265.035156 193.085938 263.457031 193.085938 Z M 259.765625 191.992188 C 260.367188 191.992188 260.859375 192.484375 260.859375 193.085938 C 260.257812 193.085938 259.765625 192.59375 259.765625 191.992188 Z M 260.3125 169.066406 C 263.019531 169.066406 265.226562 171.269531 265.226562 173.976562 C 265.226562 176.6875 263.019531 178.890625 260.3125 178.890625 C 257.605469 178.890625 255.398438 176.6875 255.398438 173.976562 C 255.398438 171.269531 257.605469 169.066406 260.3125 169.066406 Z M 233.785156 171.367188 L 236.710938 169.28125 C 236.910156 169.140625 237.140625 169.066406 237.382812 169.066406 C 237.628906 169.066406 237.859375 169.140625 238.058594 169.28125 L 240.980469 171.367188 C 241.121094 171.46875 241.207031 171.632812 241.207031 171.804688 C 241.207031 172.054688 241.035156 172.261719 240.796875 172.324219 L 237.382812 170.046875 L 233.96875 172.324219 C 233.734375 172.265625 233.5625 172.054688 233.5625 171.804688 C 233.5625 171.632812 233.648438 171.46875 233.785156 171.367188 Z M 234.65625 173.179688 L 237.382812 171.359375 L 240.113281 173.179688 L 240.113281 177.800781 L 239.023438 177.800781 L 239.023438 175.617188 C 239.023438 175.011719 238.53125 174.523438 237.929688 174.523438 L 236.839844 174.523438 C 236.234375 174.523438 235.746094 175.011719 235.746094 175.617188 L 235.746094 177.800781 L 234.65625 177.800781 Z M 236.839844 177.800781 L 236.839844 175.617188 L 237.929688 175.617188 L 237.929688 177.800781 Z M 238.476562 200.726562 C 235.765625 200.726562 233.5625 198.523438 233.5625 195.816406 C 233.5625 193.105469 235.765625 190.902344 238.476562 190.902344 C 241.183594 190.902344 243.390625 193.105469 243.390625 195.816406 C 243.390625 198.523438 241.183594 200.726562 238.476562 200.726562 Z M 249.394531 198.542969 C 247.601562 198.542969 245.867188 198.199219 244.230469 197.527344 C 244.390625 196.984375 244.480469 196.410156 244.480469 195.816406 C 244.480469 192.503906 241.785156 189.808594 238.476562 189.808594 C 237.878906 189.808594 237.304688 189.898438 236.761719 190.0625 C 236.089844 188.421875 235.746094 186.6875 235.746094 184.894531 C 235.746094 182.8125 236.230469 180.746094 237.140625 178.890625 L 240.113281 178.890625 C 240.714844 178.890625 241.207031 178.402344 241.207031 177.800781 L 241.207031 173.988281 C 243.582031 172.199219 246.40625 171.25 249.394531 171.25 C 251.1875 171.25 252.921875 171.59375 254.558594 172.265625 C 254.398438 172.808594 254.308594 173.382812 254.308594 173.976562 C 254.308594 177.289062 257 179.984375 260.3125 179.984375 C 260.90625 179.984375 261.484375 179.894531 262.027344 179.730469 C 262.699219 181.371094 263.042969 183.105469 263.042969 184.894531 C 263.042969 187.238281 262.445312 189.519531 261.3125 191.542969 C 260.917969 191.148438 260.371094 190.902344 259.765625 190.902344 L 258.675781 190.902344 L 258.675781 191.992188 C 258.675781 192.40625 258.796875 192.789062 258.996094 193.121094 C 257.589844 193.296875 256.492188 194.488281 256.492188 195.945312 C 256.492188 196.140625 256.503906 196.335938 256.523438 196.527344 C 254.378906 197.84375 251.925781 198.542969 249.394531 198.542969 Z M 264.921875 197.613281 L 264.074219 199.871094 C 263.882812 200.382812 263.386719 200.726562 262.84375 200.726562 L 262.722656 200.726562 C 262.371094 200.726562 262.039062 200.589844 261.789062 200.34375 L 261.402344 199.957031 L 261.019531 200.34375 C 260.769531 200.589844 260.4375 200.726562 260.085938 200.726562 L 259.964844 200.726562 C 259.417969 200.726562 258.925781 200.382812 258.734375 199.871094 L 257.882812 197.613281 C 257.683594 197.078125 257.582031 196.519531 257.582031 195.945312 C 257.582031 194.96875 258.378906 194.175781 259.351562 194.175781 C 259.824219 194.175781 260.269531 194.359375 260.605469 194.695312 L 260.875 194.964844 C 260.875 195.035156 260.867188 195.101562 260.863281 195.171875 C 260.78125 195.144531 260.695312 195.121094 260.613281 195.082031 L 260.011719 194.78125 L 259.523438 195.757812 L 260.125 196.058594 C 260.519531 196.257812 260.964844 196.359375 261.402344 196.359375 C 261.84375 196.359375 262.289062 196.257812 262.683594 196.058594 L 263.285156 195.757812 L 262.796875 194.78125 L 262.195312 195.082031 C 262.117188 195.121094 262.035156 195.140625 261.957031 195.167969 C 261.957031 195.085938 261.964844 195.007812 261.96875 194.929688 L 262.203125 194.695312 C 262.539062 194.359375 262.984375 194.175781 263.453125 194.175781 C 264.429688 194.175781 265.226562 194.96875 265.226562 195.945312 C 265.226562 196.519531 265.125 197.078125 264.921875 197.613281 Z M 264.921875 197.613281 " fill-opacity="1" fill-rule="nonzero"/></g><path fill="#ffffff" d="M 257.035156 184.234375 C 257.035156 183.496094 256.835938 182.773438 256.457031 182.140625 C 255.660156 180.808594 254.199219 179.984375 252.648438 179.984375 C 251.460938 179.984375 250.34375 180.445312 249.503906 181.285156 L 249.394531 181.394531 L 249.285156 181.285156 C 248.445312 180.445312 247.328125 179.984375 246.140625 179.984375 C 244.589844 179.984375 243.128906 180.808594 242.332031 182.140625 C 241.953125 182.773438 241.75 183.496094 241.75 184.234375 L 241.75 184.484375 C 241.75 185.949219 242.390625 187.328125 243.511719 188.277344 L 249.394531 193.253906 L 255.277344 188.277344 C 256.394531 187.328125 257.035156 185.949219 257.035156 184.484375 Z M 255.945312 184.484375 C 255.945312 185.625 255.445312 186.703125 254.574219 187.441406 L 249.394531 191.824219 L 244.214844 187.441406 C 243.34375 186.703125 242.84375 185.625 242.84375 184.484375 L 242.84375 184.234375 C 242.84375 183.695312 242.988281 183.164062 243.265625 182.703125 C 243.871094 181.699219 244.972656 181.074219 246.140625 181.074219 C 247.039062 181.074219 247.878906 181.421875 248.511719 182.054688 L 249.394531 182.9375 L 250.277344 182.054688 C 250.910156 181.421875 251.75 181.074219 252.648438 181.074219 C 253.816406 181.074219 254.917969 181.699219 255.519531 182.703125 C 255.796875 183.164062 255.945312 183.695312 255.945312 184.234375 Z M 255.945312 184.484375 " fill-opacity="1" fill-rule="nonzero"/><path fill="#ffffff" d="M 245.027344 184.671875 L 245.027344 184.578125 C 245.027344 184.222656 245.164062 183.894531 245.414062 183.644531 L 244.640625 182.871094 C 244.1875 183.328125 243.933594 183.933594 243.933594 184.578125 L 243.933594 184.671875 C 243.933594 185.3125 244.1875 185.917969 244.640625 186.375 L 245.734375 187.464844 L 246.503906 186.695312 L 245.414062 185.601562 C 245.164062 185.351562 245.027344 185.023438 245.027344 184.671875 Z M 245.027344 184.671875 " fill-opacity="1" fill-rule="nonzero"/><path fill="#ffffff" d="M 201.414062 46.003906 C 197.339844 46.003906 194.023438 42.6875 194.023438 38.617188 C 194.023438 34.542969 197.339844 31.226562 201.414062 31.226562 C 205.484375 31.226562 208.800781 34.542969 208.800781 38.617188 C 208.800781 42.6875 205.484375 46.003906 201.414062 46.003906 Z M 201.414062 32.363281 C 197.964844 32.363281 195.160156 35.167969 195.160156 38.617188 C 195.160156 42.0625 197.964844 44.867188 201.414062 44.867188 C 204.859375 44.867188 207.664062 42.0625 207.664062 38.617188 C 207.664062 35.167969 204.859375 32.363281 201.414062 32.363281 Z M 201.414062 32.363281 " fill-opacity="1" fill-rule="nonzero"/><path fill="#ffffff" d="M 200.398438 35.359375 L 200.0625 34.273438 C 200.496094 34.136719 200.953125 34.070312 201.414062 34.070312 L 201.414062 35.207031 C 201.066406 35.207031 200.726562 35.257812 200.398438 35.359375 Z M 200.398438 35.359375 " fill-opacity="1" fill-rule="nonzero"/><path fill="#ffffff" d="M 198.003906 38.617188 L 196.867188 38.617188 C 196.867188 37.171875 197.53125 35.84375 198.6875 34.976562 L 199.371094 35.886719 C 198.5 36.535156 198.003906 37.53125 198.003906 38.617188 Z M 198.003906 38.617188 " fill-opacity="1" fill-rule="nonzero"/><g clip-path="url(#8a21fb8ae1)"><path fill="#ffffff" d="M 201.414062 32.363281 C 199.847656 32.363281 198.570312 31.089844 198.570312 29.523438 C 198.570312 27.957031 199.847656 26.679688 201.414062 26.679688 C 202.980469 26.679688 204.253906 27.957031 204.253906 29.523438 C 204.253906 31.089844 202.980469 32.363281 201.414062 32.363281 Z M 201.414062 27.816406 C 200.472656 27.816406 199.707031 28.582031 199.707031 29.523438 C 199.707031 30.464844 200.472656 31.226562 201.414062 31.226562 C 202.351562 31.226562 203.117188 30.464844 203.117188 29.523438 C 203.117188 28.582031 202.351562 27.816406 201.414062 27.816406 Z M 201.414062 27.816406 " fill-opacity="1" fill-rule="nonzero"/></g><g clip-path="url(#20106475af)"><path fill="#ffffff" d="M 193.457031 37.480469 C 191.890625 37.480469 190.613281 36.203125 190.613281 34.636719 C 190.613281 33.070312 191.890625 31.796875 193.457031 31.796875 C 195.023438 31.796875 196.296875 33.070312 196.296875 34.636719 C 196.296875 34.730469 196.292969 34.824219 196.285156 34.917969 L 195.152344 34.804688 C 195.160156 34.75 195.160156 34.695312 195.160156 34.636719 C 195.160156 33.695312 194.398438 32.933594 193.457031 32.933594 C 192.515625 32.933594 191.75 33.695312 191.75 34.636719 C 191.75 35.578125 192.515625 36.34375 193.457031 36.34375 C 193.882812 36.34375 194.292969 36.183594 194.605469 35.894531 L 195.375 36.734375 C 194.851562 37.214844 194.167969 37.480469 193.457031 37.480469 Z M 193.457031 37.480469 " fill-opacity="1" fill-rule="nonzero"/></g><path fill="#ffffff" d="M 209.367188 37.480469 C 208.65625 37.480469 207.976562 37.214844 207.453125 36.738281 L 208.21875 35.898438 C 208.535156 36.183594 208.941406 36.34375 209.367188 36.34375 C 210.308594 36.34375 211.074219 35.578125 211.074219 34.636719 C 211.074219 33.695312 210.308594 32.933594 209.367188 32.933594 C 208.429688 32.933594 207.664062 33.695312 207.664062 34.636719 C 207.664062 34.695312 207.667969 34.75 207.671875 34.804688 L 206.539062 34.917969 C 206.53125 34.824219 206.527344 34.730469 206.527344 34.636719 C 206.527344 33.070312 207.800781 31.796875 209.367188 31.796875 C 210.933594 31.796875 212.210938 33.070312 212.210938 34.636719 C 212.210938 36.203125 210.933594 37.480469 209.367188 37.480469 Z M 209.367188 37.480469 " fill-opacity="1" fill-rule="nonzero"/><path fill="#ffffff" d="M 196.296875 48.84375 C 194.730469 48.84375 193.457031 47.570312 193.457031 46.003906 C 193.457031 44.4375 194.730469 43.160156 196.296875 43.160156 C 196.621094 43.160156 196.9375 43.214844 197.238281 43.320312 L 196.863281 44.394531 C 196.683594 44.332031 196.492188 44.296875 196.296875 44.296875 C 195.359375 44.296875 194.59375 45.0625 194.59375 46.003906 C 194.59375 46.941406 195.359375 47.707031 196.296875 47.707031 C 197.238281 47.707031 198.003906 46.941406 198.003906 46.003906 C 198.003906 45.601562 197.859375 45.210938 197.601562 44.90625 L 198.472656 44.171875 C 198.902344 44.683594 199.140625 45.332031 199.140625 46.003906 C 199.140625 47.570312 197.863281 48.84375 196.296875 48.84375 Z M 196.296875 48.84375 " fill-opacity="1" fill-rule="nonzero"/><path fill="#ffffff" d="M 206.527344 48.84375 C 204.960938 48.84375 203.6875 47.570312 203.6875 46.003906 C 203.6875 45.335938 203.921875 44.6875 204.347656 44.179688 L 205.21875 44.910156 C 204.964844 45.214844 204.824219 45.605469 204.824219 46.003906 C 204.824219 46.945312 205.585938 47.710938 206.527344 47.710938 C 207.46875 47.710938 208.234375 46.945312 208.234375 46.003906 C 208.234375 45.0625 207.46875 44.300781 206.527344 44.300781 C 206.332031 44.300781 206.144531 44.332031 205.964844 44.394531 L 205.585938 43.324219 C 205.886719 43.214844 206.203125 43.164062 206.527344 43.164062 C 208.09375 43.164062 209.371094 44.4375 209.371094 46.003906 C 209.371094 47.570312 208.09375 48.847656 206.527344 48.847656 Z M 206.527344 48.84375 " fill-opacity="1" fill-rule="nonzero"/><path fill="#ffffff" d="M 208.230469 58.507812 C 206.664062 58.507812 205.390625 57.230469 205.390625 55.664062 L 206.527344 55.664062 C 206.527344 56.605469 207.292969 57.371094 208.230469 57.371094 Z M 208.230469 58.507812 " fill-opacity="1" fill-rule="nonzero"/><g clip-path="url(#1d7c504e93)"><path fill="#ffffff" d="M 208.230469 60.777344 C 205.410156 60.777344 203.117188 58.484375 203.117188 55.664062 C 203.117188 52.84375 205.410156 50.550781 208.230469 50.550781 C 211.050781 50.550781 213.347656 52.84375 213.347656 55.664062 C 213.347656 58.484375 211.050781 60.777344 208.230469 60.777344 Z M 208.230469 51.6875 C 206.039062 51.6875 204.253906 53.472656 204.253906 55.664062 C 204.253906 57.859375 206.039062 59.644531 208.230469 59.644531 C 210.425781 59.644531 212.210938 57.859375 212.210938 55.664062 C 212.210938 53.472656 210.425781 51.6875 208.230469 51.6875 Z M 208.230469 51.6875 " fill-opacity="1" fill-rule="nonzero"/></g><path fill="#ffffff" d="M 219.03125 51.6875 C 217.460938 51.6875 216.1875 50.410156 216.1875 48.84375 L 217.324219 48.84375 C 217.324219 49.785156 218.089844 50.550781 219.03125 50.550781 Z M 219.03125 51.6875 " fill-opacity="1" fill-rule="nonzero"/><g clip-path="url(#2ed6dc6ddd)"><path fill="#ffffff" d="M 219.03125 53.960938 C 216.210938 53.960938 213.914062 51.664062 213.914062 48.84375 C 213.914062 46.023438 216.210938 43.730469 219.03125 43.730469 C 221.851562 43.730469 224.144531 46.023438 224.144531 48.84375 C 224.144531 51.664062 221.851562 53.960938 219.03125 53.960938 Z M 219.03125 44.867188 C 216.835938 44.867188 215.050781 46.652344 215.050781 48.84375 C 215.050781 51.039062 216.835938 52.824219 219.03125 52.824219 C 221.222656 52.824219 223.007812 51.039062 223.007812 48.84375 C 223.007812 46.652344 221.222656 44.867188 219.03125 44.867188 Z M 219.03125 44.867188 " fill-opacity="1" fill-rule="nonzero"/></g><path fill="#ffffff" d="M 207.285156 42.09375 L 207.816406 41.085938 L 215.882812 45.339844 L 215.355469 46.34375 Z M 207.285156 42.09375 " fill-opacity="1" fill-rule="nonzero"/><path fill="#ffffff" d="M 211.980469 53.113281 L 215.144531 51.15625 L 215.742188 52.125 L 212.578125 54.078125 Z M 211.980469 53.113281 " fill-opacity="1" fill-rule="nonzero"/><path fill="#ffffff" d="M 218.460938 28.953125 L 217.324219 28.953125 L 217.324219 30.089844 L 218.460938 30.089844 Z M 218.460938 28.953125 " fill-opacity="1" fill-rule="nonzero"/><path fill="#ffffff" d="M 220.734375 30.089844 L 219.597656 30.089844 L 219.597656 31.226562 L 220.734375 31.226562 Z M 220.734375 30.089844 " fill-opacity="1" fill-rule="nonzero"/><path fill="#ffffff" d="M 215.050781 32.363281 L 213.914062 32.363281 L 213.914062 33.5 L 215.050781 33.5 Z M 215.050781 32.363281 " fill-opacity="1" fill-rule="nonzero"/><path fill="#ffffff" d="M 221.871094 32.363281 L 220.734375 32.363281 L 220.734375 33.5 L 221.871094 33.5 Z M 221.871094 32.363281 " fill-opacity="1" fill-rule="nonzero"/><path fill="#ffffff" d="M 218.460938 35.773438 L 217.324219 35.773438 L 217.324219 36.910156 L 218.460938 36.910156 Z M 218.460938 35.773438 " fill-opacity="1" fill-rule="nonzero"/><path fill="#ffffff" d="M 216.1875 34.636719 L 215.050781 34.636719 L 215.050781 35.773438 L 216.1875 35.773438 Z M 216.1875 34.636719 " fill-opacity="1" fill-rule="nonzero"/><path fill="#ffffff" d="M 220.734375 34.636719 L 219.597656 34.636719 L 219.597656 35.773438 L 220.734375 35.773438 Z M 220.734375 34.636719 " fill-opacity="1" fill-rule="nonzero"/><path fill="#ffffff" d="M 216.1875 30.089844 L 215.050781 30.089844 L 215.050781 31.226562 L 216.1875 31.226562 Z M 216.1875 30.089844 " fill-opacity="1" fill-rule="nonzero"/><path fill="#ffffff" d="M 197.433594 52.253906 L 196.296875 52.253906 L 196.296875 53.390625 L 197.433594 53.390625 Z M 197.433594 52.253906 " fill-opacity="1" fill-rule="nonzero"/><path fill="#ffffff" d="M 199.707031 53.390625 L 198.570312 53.390625 L 198.570312 54.527344 L 199.707031 54.527344 Z M 199.707031 53.390625 " fill-opacity="1" fill-rule="nonzero"/><path fill="#ffffff" d="M 194.023438 55.664062 L 192.886719 55.664062 L 192.886719 56.800781 L 194.023438 56.800781 Z M 194.023438 55.664062 " fill-opacity="1" fill-rule="nonzero"/><path fill="#ffffff" d="M 200.84375 55.664062 L 199.707031 55.664062 L 199.707031 56.800781 L 200.84375 56.800781 Z M 200.84375 55.664062 " fill-opacity="1" fill-rule="nonzero"/><g clip-path="url(#3fd57fff09)"><path fill="#ffffff" d="M 197.433594 59.074219 L 196.296875 59.074219 L 196.296875 60.210938 L 197.433594 60.210938 Z M 197.433594 59.074219 " fill-opacity="1" fill-rule="nonzero"/></g><path fill="#ffffff" d="M 195.160156 57.9375 L 194.023438 57.9375 L 194.023438 59.074219 L 195.160156 59.074219 Z M 195.160156 57.9375 " fill-opacity="1" fill-rule="nonzero"/><path fill="#ffffff" d="M 199.707031 57.9375 L 198.570312 57.9375 L 198.570312 59.074219 L 199.707031 59.074219 Z M 199.707031 57.9375 " fill-opacity="1" fill-rule="nonzero"/><path fill="#ffffff" d="M 195.160156 53.390625 L 194.023438 53.390625 L 194.023438 54.527344 L 195.160156 54.527344 Z M 195.160156 53.390625 " fill-opacity="1" fill-rule="nonzero"/><g clip-path="url(#cde049c343)"><path fill="#ffffff" d="M 173.96875 188.195312 C 172.710938 188.921875 171.246094 189.117188 169.84375 188.742188 C 168.441406 188.367188 167.269531 187.464844 166.542969 186.207031 L 163.386719 180.746094 L 172.808594 175.304688 L 175.960938 180.765625 C 177.460938 183.363281 176.566406 186.695312 173.96875 188.195312 M 156.800781 182.757812 L 147.378906 177.320312 L 151.398438 170.355469 C 152.566406 168.335938 154.902344 167.300781 157.144531 167.734375 C 157.085938 167.902344 157.03125 168.074219 156.988281 168.246094 C 156.8125 168.894531 156.738281 169.550781 156.757812 170.203125 C 156.796875 171.289062 157.097656 172.355469 157.65625 173.324219 L 158.898438 175.476562 L 159.949219 177.300781 Z M 153.019531 189.300781 C 152.699219 189.847656 152.304688 190.324219 151.847656 190.714844 C 150.613281 191.777344 148.914062 192.230469 147.308594 191.933594 C 146.71875 191.820312 146.136719 191.605469 145.59375 191.296875 L 145.53125 191.261719 C 144.304688 190.53125 143.425781 189.371094 143.054688 187.992188 C 142.683594 186.609375 142.882812 185.105469 143.597656 183.867188 L 146.75 178.402344 L 156.171875 183.84375 Z M 160.726562 165.269531 C 160.726562 165.269531 160.730469 165.269531 160.734375 165.265625 C 161.992188 164.539062 163.457031 164.347656 164.859375 164.722656 C 166.261719 165.097656 167.433594 166 168.160156 167.257812 L 172.183594 174.21875 L 162.761719 179.660156 L 158.742188 172.695312 C 158.648438 172.535156 158.5625 172.371094 158.488281 172.203125 C 158.484375 172.191406 158.480469 172.179688 158.476562 172.171875 C 157.371094 169.667969 158.304688 166.671875 160.726562 165.269531 M 169.246094 166.632812 C 168.355469 165.082031 166.910156 163.976562 165.183594 163.511719 C 163.460938 163.050781 161.660156 163.285156 160.113281 164.175781 C 160.109375 164.179688 160.109375 164.179688 160.105469 164.183594 C 159.089844 164.765625 158.269531 165.59375 157.691406 166.574219 C 154.839844 165.878906 151.800781 167.152344 150.3125 169.730469 L 142.511719 183.238281 C 141.632812 184.765625 141.386719 186.617188 141.84375 188.316406 C 142.300781 190.011719 143.382812 191.441406 144.890625 192.339844 C 144.894531 192.339844 144.894531 192.339844 144.894531 192.339844 L 144.964844 192.382812 C 145.640625 192.765625 146.347656 193.027344 147.078125 193.164062 C 147.480469 193.238281 147.882812 193.277344 148.289062 193.277344 C 149.878906 193.277344 151.449219 192.710938 152.664062 191.667969 C 153.226562 191.1875 153.710938 190.601562 154.105469 189.929688 L 160.675781 178.550781 L 165.453125 186.832031 C 166.347656 188.382812 167.792969 189.488281 169.519531 189.953125 C 170.09375 190.105469 170.679688 190.183594 171.261719 190.183594 C 172.421875 190.183594 173.566406 189.878906 174.597656 189.28125 C 176.144531 188.386719 177.253906 186.945312 177.714844 185.21875 C 178.179688 183.492188 177.941406 181.6875 177.046875 180.140625 Z M 169.246094 166.632812 " fill-opacity="1" fill-rule="nonzero"/></g><g clip-path="url(#6ad64f7ef5)"><path fill="#ffffff" d="M 298.796875 86.535156 C 298.464844 86.183594 297.910156 86.160156 297.554688 86.492188 C 296.8125 87.183594 295.941406 87.652344 295.023438 87.957031 L 290.324219 83.253906 C 289.980469 82.910156 289.425781 82.910156 289.082031 83.253906 C 288.738281 83.597656 288.738281 84.152344 289.082031 84.496094 L 292.976562 88.390625 C 291.921875 88.507812 290.882812 88.476562 289.984375 88.386719 C 289.5 88.339844 289.070312 88.691406 289.023438 89.171875 C 288.976562 89.65625 289.328125 90.085938 289.808594 90.132812 C 290.355469 90.1875 290.941406 90.222656 291.558594 90.222656 C 293.925781 90.222656 296.679688 89.703125 298.75 87.777344 C 299.105469 87.449219 299.125 86.890625 298.796875 86.535156 " fill-opacity="1" fill-rule="nonzero"/></g><g clip-path="url(#0fd484bb0f)"><path fill="#ffffff" d="M 288.253906 89.5 C 288.230469 89.425781 285.808594 82.203125 289.421875 78.367188 C 289.753906 78.011719 289.738281 77.457031 289.386719 77.125 C 289.03125 76.792969 288.476562 76.808594 288.144531 77.164062 C 283.84375 81.726562 286.421875 89.566406 286.589844 90.058594 C 286.675781 90.332031 288.132812 95.1875 285.265625 98.722656 L 277.125 90.582031 C 277.867188 90 278.65625 89.597656 279.460938 89.332031 L 284.085938 93.957031 C 284.257812 94.128906 284.480469 94.214844 284.707031 94.214844 C 284.929688 94.214844 285.15625 94.128906 285.328125 93.957031 C 285.667969 93.617188 285.667969 93.058594 285.328125 92.714844 L 281.519531 88.90625 C 282.46875 88.820312 283.378906 88.871094 284.171875 88.980469 C 284.652344 89.042969 285.09375 88.707031 285.160156 88.226562 C 285.222656 87.746094 284.886719 87.304688 284.40625 87.238281 C 283.230469 87.078125 281.472656 87 279.628906 87.464844 C 279.53125 87.472656 279.4375 87.5 279.347656 87.539062 C 277.941406 87.933594 276.496094 88.660156 275.230469 89.921875 C 275.226562 89.921875 275.226562 89.921875 275.226562 89.921875 C 273.410156 91.730469 272.429688 94.195312 272.398438 97.046875 C 272.371094 99.101562 272.835938 100.667969 272.929688 100.960938 C 272.929688 100.96875 272.933594 100.976562 272.9375 100.984375 C 272.960938 101.058594 275.382812 108.28125 271.769531 112.117188 C 271.4375 112.472656 271.453125 113.027344 271.804688 113.359375 C 271.976562 113.519531 272.191406 113.597656 272.40625 113.597656 C 272.640625 113.597656 272.875 113.503906 273.046875 113.324219 C 277.347656 108.757812 274.765625 100.910156 274.601562 100.425781 C 274.511719 100.148438 273.070312 95.351562 275.882812 91.820312 L 284.007812 99.949219 C 283.277344 100.511719 282.492188 100.902344 281.703125 101.164062 L 277.058594 96.519531 C 276.714844 96.175781 276.15625 96.175781 275.816406 96.519531 C 275.472656 96.863281 275.472656 97.417969 275.816406 97.761719 L 279.632812 101.582031 C 278.695312 101.664062 277.800781 101.613281 277.019531 101.507812 C 276.539062 101.441406 276.097656 101.777344 276.03125 102.257812 C 275.96875 102.738281 276.304688 103.179688 276.785156 103.246094 C 277.300781 103.316406 277.933594 103.371094 278.632812 103.371094 C 280.785156 103.371094 283.609375 102.847656 285.882812 100.640625 C 285.894531 100.632812 285.902344 100.621094 285.914062 100.613281 C 285.917969 100.609375 285.921875 100.601562 285.925781 100.597656 C 285.9375 100.585938 285.949219 100.574219 285.960938 100.5625 C 287.777344 98.761719 288.757812 96.300781 288.792969 93.453125 C 288.820312 91.402344 288.355469 89.824219 288.261719 89.523438 C 288.261719 89.515625 288.257812 89.507812 288.253906 89.5 " fill-opacity="1" fill-rule="nonzero"/></g><g clip-path="url(#7a84cbc3fb)"><path fill="#ffffff" d="M 271.402344 106.113281 L 267.488281 102.195312 C 268.789062 101.964844 270.101562 101.988281 271.207031 102.097656 C 271.6875 102.148438 272.117188 101.792969 272.164062 101.3125 C 272.214844 100.828125 271.863281 100.398438 271.378906 100.351562 C 267.59375 99.972656 264.503906 100.789062 262.441406 102.707031 C 262.085938 103.039062 262.066406 103.59375 262.394531 103.949219 C 262.570312 104.132812 262.804688 104.226562 263.039062 104.226562 C 263.253906 104.226562 263.46875 104.148438 263.636719 103.992188 C 264.214844 103.453125 264.871094 103.054688 265.566406 102.757812 L 270.160156 107.355469 C 270.332031 107.527344 270.558594 107.613281 270.78125 107.613281 C 271.007812 107.613281 271.230469 107.527344 271.402344 107.355469 C 271.746094 107.011719 271.746094 106.457031 271.402344 106.113281 " fill-opacity="1" fill-rule="nonzero"/></g><g clip-path="url(#18107b8be9)"><g clip-path="url(#952a479335)"><path fill="#d89d55" d="M 175.90625 90.40625 L 236.097656 90.40625 L 236.097656 150.597656 L 175.90625 150.597656 Z M 175.90625 90.40625 " fill-opacity="1" fill-rule="nonzero"/></g></g><g clip-path="url(#a668a17f8e)"><path fill="#ffffff" d="M 206 97.664062 C 193.40625 97.664062 183.164062 107.90625 183.164062 120.5 C 183.164062 133.09375 193.40625 143.335938 206 143.335938 C 218.59375 143.335938 228.835938 133.09375 228.835938 120.5 C 228.835938 107.90625 218.59375 97.664062 206 97.664062 Z M 206 142.195312 C 194.039062 142.195312 184.304688 132.460938 184.304688 120.5 C 184.304688 108.539062 194.039062 98.804688 206 98.804688 C 217.960938 98.804688 227.695312 108.539062 227.695312 120.5 C 227.695312 132.460938 217.960938 142.195312 206 142.195312 Z M 206 142.195312 " fill-opacity="1" fill-rule="nonzero"/></g><path fill="#ffffff" d="M 207.398438 136.757812 C 206.941406 136.796875 206.476562 136.816406 206.019531 136.816406 C 205.589844 136.808594 205.140625 136.800781 204.703125 136.765625 C 204.394531 136.746094 204.117188 136.976562 204.089844 137.289062 C 204.066406 137.605469 204.300781 137.878906 204.617188 137.902344 C 205.082031 137.941406 205.539062 137.980469 206.019531 137.957031 C 206.511719 137.957031 207.007812 137.9375 207.496094 137.894531 C 207.8125 137.867188 208.042969 137.59375 208.015625 137.277344 C 207.988281 136.964844 207.71875 136.722656 207.398438 136.757812 Z M 207.398438 136.757812 " fill-opacity="1" fill-rule="nonzero"/><path fill="#ffffff" d="M 222.089844 117.78125 C 222.238281 118.660156 222.3125 119.5625 222.316406 120.464844 C 222.316406 120.78125 222.574219 121.035156 222.886719 121.035156 C 223.203125 121.035156 223.457031 120.777344 223.457031 120.460938 C 223.457031 119.5 223.375 118.53125 223.214844 117.59375 C 223.164062 117.28125 222.867188 117.070312 222.558594 117.125 C 222.25 117.175781 222.039062 117.46875 222.089844 117.78125 Z M 222.089844 117.78125 " fill-opacity="1" fill-rule="nonzero"/><path fill="#ffffff" d="M 220.570312 111.933594 C 220.292969 112.085938 220.1875 112.433594 220.339844 112.710938 C 220.769531 113.496094 221.136719 114.328125 221.425781 115.171875 C 221.507812 115.40625 221.730469 115.554688 221.964844 115.554688 C 222.027344 115.554688 222.089844 115.546875 222.152344 115.523438 C 222.453125 115.421875 222.609375 115.097656 222.507812 114.800781 C 222.195312 113.894531 221.804688 113.007812 221.34375 112.164062 C 221.191406 111.886719 220.847656 111.785156 220.570312 111.933594 Z M 220.570312 111.933594 " fill-opacity="1" fill-rule="nonzero"/><path fill="#ffffff" d="M 222.757812 122.679688 C 222.445312 122.625 222.152344 122.839844 222.101562 123.152344 C 221.957031 124.035156 221.738281 124.914062 221.449219 125.761719 C 221.347656 126.0625 221.507812 126.386719 221.804688 126.488281 C 221.867188 126.507812 221.929688 126.515625 221.988281 126.515625 C 222.226562 126.515625 222.449219 126.367188 222.53125 126.128906 C 222.839844 125.222656 223.074219 124.28125 223.230469 123.335938 C 223.28125 123.023438 223.070312 122.730469 222.757812 122.679688 Z M 222.757812 122.679688 " fill-opacity="1" fill-rule="nonzero"/><path fill="#ffffff" d="M 217.082031 132.476562 C 216.421875 133.085938 215.710938 133.644531 214.960938 134.136719 C 214.699219 134.308594 214.625 134.664062 214.800781 134.925781 C 214.910156 135.09375 215.089844 135.183594 215.277344 135.183594 C 215.382812 135.183594 215.492188 135.152344 215.589844 135.089844 C 216.390625 134.5625 217.152344 133.964844 217.859375 133.3125 C 218.089844 133.097656 218.101562 132.738281 217.886719 132.507812 C 217.671875 132.273438 217.3125 132.261719 217.082031 132.476562 Z M 217.082031 132.476562 " fill-opacity="1" fill-rule="nonzero"/><path fill="#ffffff" d="M 221.144531 128 C 220.867188 127.847656 220.523438 127.953125 220.371094 128.230469 C 219.949219 129.019531 219.453125 129.777344 218.902344 130.488281 C 218.710938 130.738281 218.753906 131.097656 219.003906 131.289062 C 219.109375 131.371094 219.230469 131.410156 219.351562 131.410156 C 219.523438 131.410156 219.691406 131.335938 219.804688 131.1875 C 220.394531 130.429688 220.921875 129.617188 221.375 128.773438 C 221.527344 128.496094 221.421875 128.148438 221.144531 128 Z M 221.144531 128 " fill-opacity="1" fill-rule="nonzero"/><path fill="#ffffff" d="M 212.597656 135.425781 C 211.777344 135.789062 210.921875 136.085938 210.054688 136.308594 C 209.75 136.386719 209.5625 136.699219 209.640625 137.003906 C 209.707031 137.261719 209.941406 137.433594 210.195312 137.433594 C 210.242188 137.433594 210.289062 137.425781 210.335938 137.414062 C 211.265625 137.175781 212.183594 136.859375 213.0625 136.46875 C 213.347656 136.34375 213.480469 136.007812 213.351562 135.71875 C 213.222656 135.429688 212.886719 135.296875 212.597656 135.425781 Z M 212.597656 135.425781 " fill-opacity="1" fill-rule="nonzero"/><path fill="#ffffff" d="M 202.046875 136.335938 C 201.175781 136.117188 200.320312 135.824219 199.496094 135.46875 C 199.207031 135.339844 198.871094 135.476562 198.746094 135.761719 C 198.617188 136.054688 198.75 136.390625 199.039062 136.515625 C 199.921875 136.898438 200.839844 137.210938 201.773438 137.441406 C 201.816406 137.453125 201.863281 137.460938 201.910156 137.460938 C 202.164062 137.460938 202.398438 137.285156 202.464844 137.027344 C 202.539062 136.71875 202.351562 136.410156 202.046875 136.335938 Z M 202.046875 136.335938 " fill-opacity="1" fill-rule="nonzero"/><path fill="#ffffff" d="M 192.667969 110.703125 C 192.839844 110.703125 193.007812 110.628906 193.121094 110.484375 C 193.671875 109.777344 194.285156 109.109375 194.945312 108.5 C 195.175781 108.289062 195.191406 107.925781 194.976562 107.695312 C 194.761719 107.460938 194.402344 107.449219 194.167969 107.660156 C 193.464844 108.3125 192.808594 109.027344 192.21875 109.78125 C 192.023438 110.03125 192.070312 110.390625 192.316406 110.582031 C 192.421875 110.664062 192.546875 110.703125 192.667969 110.703125 Z M 192.667969 110.703125 " fill-opacity="1" fill-rule="nonzero"/><path fill="#ffffff" d="M 191.675781 128.320312 C 191.527344 128.046875 191.179688 127.941406 190.902344 128.09375 C 190.625 128.246094 190.523438 128.59375 190.675781 128.871094 C 191.136719 129.710938 191.667969 130.519531 192.261719 131.273438 C 192.375 131.417969 192.542969 131.492188 192.710938 131.492188 C 192.835938 131.492188 192.960938 131.453125 193.0625 131.371094 C 193.3125 131.175781 193.355469 130.816406 193.160156 130.570312 C 192.605469 129.863281 192.109375 129.105469 191.675781 128.320312 Z M 191.675781 128.320312 " fill-opacity="1" fill-rule="nonzero"/><path fill="#ffffff" d="M 189.835938 115.558594 C 189.898438 115.582031 189.960938 115.589844 190.023438 115.589844 C 190.261719 115.589844 190.480469 115.441406 190.5625 115.203125 C 190.851562 114.355469 191.21875 113.527344 191.644531 112.738281 C 191.796875 112.460938 191.691406 112.113281 191.414062 111.964844 C 191.136719 111.8125 190.792969 111.917969 190.640625 112.195312 C 190.183594 113.039062 189.792969 113.925781 189.480469 114.835938 C 189.378906 115.132812 189.539062 115.457031 189.835938 115.558594 Z M 189.835938 115.558594 " fill-opacity="1" fill-rule="nonzero"/><path fill="#ffffff" d="M 189.683594 120.570312 L 189.683594 120.5 C 189.683594 119.601562 189.757812 118.699219 189.902344 117.816406 C 189.957031 117.503906 189.746094 117.210938 189.433594 117.160156 C 189.117188 117.105469 188.828125 117.320312 188.777344 117.628906 C 188.621094 118.574219 188.542969 119.539062 188.542969 120.5 L 188.542969 120.570312 C 188.542969 120.886719 188.796875 121.144531 189.113281 121.144531 C 189.429688 121.144531 189.683594 120.886719 189.683594 120.570312 Z M 189.683594 120.570312 " fill-opacity="1" fill-rule="nonzero"/><path fill="#ffffff" d="M 218.863281 110.457031 C 218.972656 110.601562 219.140625 110.675781 219.3125 110.675781 C 219.433594 110.675781 219.558594 110.636719 219.664062 110.554688 C 219.910156 110.363281 219.957031 110.003906 219.761719 109.753906 C 219.167969 108.996094 218.511719 108.285156 217.804688 107.640625 C 217.574219 107.425781 217.210938 107.441406 217 107.671875 C 216.785156 107.90625 216.800781 108.265625 217.035156 108.480469 C 217.691406 109.085938 218.308594 109.75 218.863281 110.457031 Z M 218.863281 110.457031 " fill-opacity="1" fill-rule="nonzero"/><path fill="#ffffff" d="M 196.753906 106.9375 C 196.863281 106.9375 196.972656 106.90625 197.066406 106.84375 C 197.816406 106.351562 198.613281 105.921875 199.433594 105.558594 C 199.722656 105.433594 199.851562 105.09375 199.726562 104.804688 C 199.597656 104.519531 199.265625 104.386719 198.972656 104.515625 C 198.097656 104.902344 197.246094 105.363281 196.441406 105.890625 C 196.179688 106.0625 196.105469 106.414062 196.277344 106.679688 C 196.386719 106.847656 196.570312 106.9375 196.753906 106.9375 Z M 196.753906 106.9375 " fill-opacity="1" fill-rule="nonzero"/><path fill="#ffffff" d="M 197.125 134.191406 C 196.371094 133.703125 195.652344 133.148438 194.992188 132.542969 C 194.761719 132.332031 194.398438 132.347656 194.1875 132.582031 C 193.972656 132.8125 193.988281 133.171875 194.222656 133.386719 C 194.929688 134.035156 195.695312 134.628906 196.5 135.148438 C 196.597656 135.210938 196.707031 135.242188 196.8125 135.242188 C 197 135.242188 197.183594 135.152344 197.292969 134.984375 C 197.464844 134.71875 197.386719 134.363281 197.125 134.191406 Z M 197.125 134.191406 " fill-opacity="1" fill-rule="nonzero"/><path fill="#ffffff" d="M 207.332031 104.238281 C 208.226562 104.308594 209.121094 104.457031 209.988281 104.675781 C 210.035156 104.6875 210.082031 104.691406 210.125 104.691406 C 210.382812 104.691406 210.613281 104.519531 210.679688 104.261719 C 210.757812 103.953125 210.570312 103.644531 210.265625 103.566406 C 209.339844 103.335938 208.382812 103.175781 207.421875 103.097656 C 207.105469 103.078125 206.832031 103.308594 206.808594 103.621094 C 206.78125 103.9375 207.015625 104.210938 207.332031 104.238281 Z M 207.332031 104.238281 " fill-opacity="1" fill-rule="nonzero"/><path fill="#ffffff" d="M 212.535156 105.546875 C 213.355469 105.90625 214.152344 106.335938 214.90625 106.828125 C 215.003906 106.890625 215.109375 106.917969 215.21875 106.917969 C 215.402344 106.917969 215.585938 106.828125 215.695312 106.660156 C 215.867188 106.398438 215.792969 106.042969 215.53125 105.871094 C 214.726562 105.347656 213.871094 104.882812 212.996094 104.5 C 212.703125 104.371094 212.367188 104.503906 212.242188 104.792969 C 212.117188 105.082031 212.246094 105.417969 212.535156 105.546875 Z M 212.535156 105.546875 " fill-opacity="1" fill-rule="nonzero"/><path fill="#ffffff" d="M 190.585938 125.859375 C 190.289062 125.015625 190.066406 124.136719 189.914062 123.253906 C 189.863281 122.941406 189.566406 122.738281 189.257812 122.785156 C 188.945312 122.839844 188.738281 123.132812 188.789062 123.445312 C 188.949219 124.390625 189.191406 125.328125 189.507812 126.238281 C 189.589844 126.472656 189.808594 126.621094 190.046875 126.621094 C 190.109375 126.621094 190.171875 126.609375 190.234375 126.589844 C 190.53125 126.484375 190.6875 126.160156 190.585938 125.859375 Z M 190.585938 125.859375 " fill-opacity="1" fill-rule="nonzero"/><path fill="#ffffff" d="M 201.839844 104.699219 C 201.886719 104.699219 201.933594 104.695312 201.980469 104.683594 C 202.847656 104.464844 203.742188 104.3125 204.636719 104.242188 C 204.949219 104.214844 205.183594 103.9375 205.15625 103.625 C 205.132812 103.3125 204.855469 103.082031 204.542969 103.101562 C 203.585938 103.179688 202.628906 103.339844 201.699219 103.574219 C 201.394531 103.652344 201.207031 103.964844 201.285156 104.269531 C 201.351562 104.527344 201.582031 104.699219 201.839844 104.699219 Z M 201.839844 104.699219 " fill-opacity="1" fill-rule="nonzero"/><path fill="#ffffff" d="M 196.257812 124.917969 L 201.582031 124.917969 L 201.582031 130.242188 C 201.582031 130.558594 201.835938 130.8125 202.152344 130.8125 L 209.847656 130.8125 C 210.164062 130.8125 210.417969 130.558594 210.417969 130.242188 L 210.417969 124.917969 L 215.742188 124.917969 C 216.058594 124.917969 216.3125 124.664062 216.3125 124.347656 L 216.3125 116.652344 C 216.3125 116.335938 216.058594 116.082031 215.742188 116.082031 L 210.417969 116.082031 L 210.417969 110.757812 C 210.417969 110.441406 210.164062 110.1875 209.847656 110.1875 L 202.152344 110.1875 C 201.835938 110.1875 201.582031 110.441406 201.582031 110.757812 L 201.582031 116.082031 L 196.257812 116.082031 C 195.941406 116.082031 195.6875 116.335938 195.6875 116.652344 L 195.6875 124.347656 C 195.6875 124.664062 195.941406 124.917969 196.257812 124.917969 Z M 196.828125 117.222656 L 202.152344 117.222656 C 202.46875 117.222656 202.722656 116.96875 202.722656 116.652344 L 202.722656 111.328125 L 209.277344 111.328125 L 209.277344 116.652344 C 209.277344 116.96875 209.53125 117.222656 209.847656 117.222656 L 215.171875 117.222656 L 215.171875 123.777344 L 209.847656 123.777344 C 209.53125 123.777344 209.277344 124.03125 209.277344 124.347656 L 209.277344 129.671875 L 202.722656 129.671875 L 202.722656 124.347656 C 202.722656 124.03125 202.46875 123.777344 202.152344 123.777344 L 196.828125 123.777344 Z M 196.828125 117.222656 " fill-opacity="1" fill-rule="nonzero"/></svg>